<?xml version="1.0" encoding="UTF-8"?>
<svg id="Layer_1" data-name="Layer 1" xmlns="http://www.w3.org/2000/svg" viewBox="0 0 1313.22 240">
  <defs>
    <style>
      .cls-1 {
        fill: #0000ba;
      }

      .cls-2 {
        fill: #001037;
      }

      .cls-3, .cls-4 {
        fill: #fff;
      }

      .cls-4 {
        font-family: ArialRoundedMTBold, 'Arial Rounded MT Bold';
        font-size: 114.28px;
      }
    </style>
  </defs>
  <g>
    <path class="cls-3" d="M141.09,153.44c3-.68,5.25-2.73,7.79-4.23,2.44-1.45,4.18-3.76,5.68-6.14,2.51-3.99,3.59-8.47,3.79-13.13,.13-3.16-.46-6.24-1.42-9.3-.87-2.78-2.09-5.32-3.85-7.56-4.49-5.73-10.79-8.39-17.67-9.78-2.82-.57-5.77-.7-8.66-.73-9.28-.09-18.55-.06-27.83-.01-1.65,.01-3.3,.31-4.78,1.22-2.78,1.7-3.69,4.24-3.68,7.37,.05,11.12,.02,22.25,.02,33.37v13.45c0,6.68,.02,13.36,0,20.05,0,2.35,.58,4.48,2.35,6.08,2.43,2.21,5.4,2.44,8.27,1.31,2.98-1.17,4.55-3.63,4.56-6.92,.02-6.15,0-12.31,0-18.47,0-.7-.01-1.41,.01-2.11,.03-.74,.4-1.11,1.18-1.08,5.01,.22,10.02,.06,15.03,.08,.91,0,1.6,.27,2.14,1.04,.79,1.1,1.65,2.16,2.49,3.23,3.72,4.73,7.41,9.47,11.16,14.17,2.3,2.88,4.39,5.92,6.93,8.61,2.35,2.49,7.14,2.48,9.12,1.3,4.28-2.54,5.33-6.74,2.25-10.97-2.3-3.15-4.8-6.16-7.22-9.22-2.67-3.37-5.34-6.73-8.03-10.09-.59-.74-.6-1.31,.41-1.54Zm-35.85-11.33c.04-4.04,.02-8.09,.02-12.13s0-7.82,0-11.74c0-1.82,.27-2.07,2.04-2.07,6.33,0,12.66-.05,18.99,.04,2.98,.04,5.98,.29,8.77,1.51,5.04,2.22,7.81,5.88,7.99,11.59,.22,6.9-3.34,10.92-9.05,13.21-2.43,.98-5.1,1.27-7.77,1.26-6.42-.02-12.84-.02-19.25,.02-1.24,0-1.75-.43-1.74-1.69Z"/>
    <path class="cls-3" d="M233.15,116c-1.34,.66-2.68,.95-4.17,.93-5.58-.05-11.17-.03-16.75-.02-1.74,0-1.88,.18-1.88,1.89,0,19.7,.01,39.39,0,59.09,0,3.43-1.48,6.18-4.63,7.49-3.74,1.56-8.23,.34-10.07-3.66-.63-1.36-.82-2.74-.81-4.21,.03-9.58,.02-19.17,.02-28.75h.01c0-10.03,0-20.05,0-30.07,0-1.57-.17-1.77-1.72-1.77-5.81,0-11.61,.01-17.41,0-5.36-.02-8.73-4.93-6.88-9.98,.88-2.38,4.12-4.34,7.39-4.41,1.8-.04,3.61,0,5.41,0,15.52,0,31.04,0,46.57,0,3.11,0,5.79,.79,7.57,3.6,1.83,2.9,1.1,8.05-2.64,9.88Z"/>
    <path class="cls-3" d="M251.95,153.16c-4.79-.03-9.01-4.25-9.02-9.03,0-4.94,4.19-9.06,9.15-8.99,5.07,.08,9.06,4.09,8.96,9.11-.1,5.18-4.53,8.89-9.1,8.9Z"/>
    <path class="cls-3" d="M383.09,178.02c.61,9.6-14.45,10.98-15.06,1.03-.1-22.95,.04-45.9-.05-68.85,0-2.33,.62-4.27,2.3-5.94,3.49-3.47,9.44-2.57,11.76,1.79,.75,1.4,1.06,2.86,1.06,4.43,0,22.51,.02,45.02-.01,67.53Z"/>
    <path class="cls-3" d="M74.49,171.71c-3.01,10.39-19.15,14.91-29.7,15.38-30.2,1.51-48.07-24.14-44.29-52.35,5.97-27.9,39.57-42.51,64.47-28.58,10.09,3.67,14.82,16.94,1.04,18.25-5.36-.96-8.7-6.2-14.18-7.33-10.16-3.12-22.02-.76-28.75,7.71-15.45,17.83-2.09,51.1,23.04,47.61,6.95-.5,12.85-4.47,18.26-8.52,4.55-3.15,12.62-.85,10.11,7.83Z"/>
    <path class="cls-3" d="M351.28,175.22c-6.91-15.52-13.94-30.98-20.91-46.48-2.81-6.47-6.16-12.72-8.59-19.34-2.28-6.21-9.07-10.1-15.15-6.69-5.06,3.11-6.39,9.8-8.85,14.86-5.03,10.35-9.4,21-14.04,31.53-4.01,8.7-7.94,17.45-11.86,26.19-2.97,4.46,.67,10.99,6.1,10.68,2.94-.03,5.28-1.15,6.58-3.95,1.99-4.48,4.35-8.81,5.7-13.54,.29-1.56,1.79-2.76,3.05-2.76,12,0,24.01,.02,36.01-.01,4.94,.13,6.45,17.88,12.66,19.79,6.68,2.39,12.52-3.68,9.31-10.28Zm-28.03-23s-19.86,0-23.86-.01c-1.63,0-1.88-.45-1.19-1.91,4.27-9.41,8.35-18.92,12.42-28.42,.29-1.18,1.47-1.38,1.64,0,1.46,3.38,9.65,22.37,12.31,28.46,.75,1.76,.66,1.87-1.33,1.87Z"/>
    <path class="cls-1" d="M406.89,221.38l.9,4.01c.13,.59-.24,1.18-.83,1.31-.05,.01-.1,.02-.14,.03-.59,.13-1.17-.26-1.29-.85l-.81-4.03c-.12-.59,.26-1.16,.85-1.28,0,0,.02,0,.03,0,.59-.13,1.17,.24,1.3,.83Z"/>
    <path class="cls-1" d="M410.23,220.56l1.04,3.98c.15,.59-.2,1.19-.78,1.33-.05,.01-.09,.02-.14,.04-.59,.15-1.18-.22-1.32-.81l-.95-4c-.14-.58,.22-1.17,.8-1.31,0,0,.02,0,.02,0,.58-.15,1.18,.2,1.33,.78Z"/>
    <path class="cls-1" d="M438.47,208.13l2.22,3.46c.33,.51,.18,1.19-.34,1.51-.04,.02-.07,.05-.11,.07-.52,.32-1.2,.16-1.51-.36l-2.14-3.51c-.31-.51-.15-1.18,.36-1.5,0,0,.01,0,.02-.01,.51-.32,1.18-.18,1.51,.33Z"/>
    <path class="cls-3" d="M324.7,42.13l2.42,3.33c.35,.49,.25,1.16-.24,1.52,0,0-.01,0-.02,.01-.48,.36-1.16,.27-1.53-.21l-2.5-3.27c-.37-.48-.28-1.17,.21-1.53,.04-.03,.08-.06,.12-.09,.48-.36,1.17-.25,1.53,.24Z"/>
    <path class="cls-3" d="M327.64,40.07l2.31,3.41c.34,.5,.21,1.17-.29,1.51,0,0-.01,.01-.02,.02-.49,.34-1.17,.23-1.52-.26l-2.38-3.35c-.35-.49-.23-1.18,.26-1.52,.04-.03,.08-.06,.12-.08,.5-.35,1.18-.21,1.52,.29Z"/>
    <path class="cls-3" d="M330.64,38.11l2.19,3.48c.32,.51,.16,1.18-.34,1.5,0,0-.01,0-.02,.01-.51,.32-1.18,.19-1.51-.31l-2.26-3.43c-.33-.51-.19-1.19,.32-1.52,.04-.03,.08-.05,.12-.08,.51-.33,1.19-.17,1.51,.34Z"/>
    <path class="cls-3" d="M333.71,36.26l2.06,3.56c.3,.52,.12,1.18-.39,1.49,0,0-.01,0-.02,.01-.52,.31-1.18,.15-1.5-.37l-2.14-3.51c-.31-.52-.15-1.19,.37-1.5,.04-.02,.08-.05,.12-.07,.52-.31,1.19-.13,1.5,.39Z"/>
    <path class="cls-3" d="M336.85,34.52l1.94,3.63c.28,.53,.08,1.19-.44,1.47,0,0-.01,0-.02,.01-.53,.29-1.19,.1-1.48-.42l-2.02-3.58c-.3-.53-.11-1.2,.42-1.49,.04-.02,.08-.05,.13-.07,.53-.29,1.2-.09,1.48,.45Z"/>
    <path class="cls-3" d="M340.04,32.88l1.81,3.69c.26,.54,.04,1.19-.49,1.46,0,0-.02,0-.03,.01-.54,.27-1.19,.06-1.47-.47l-1.89-3.65c-.28-.54-.07-1.2,.47-1.47,.04-.02,.09-.05,.13-.07,.54-.27,1.2-.04,1.46,.5Z"/>
    <path class="cls-3" d="M343.29,31.36l1.68,3.75c.25,.55,0,1.19-.55,1.44,0,0-.02,0-.02,.01-.55,.25-1.19,.02-1.45-.52l-1.76-3.72c-.26-.55-.03-1.2,.52-1.46,.05-.02,.09-.04,.14-.06,.55-.25,1.2,0,1.45,.55Z"/>
    <path class="cls-3" d="M346.59,29.95l1.55,3.81c.23,.56-.04,1.19-.59,1.42,0,0-.02,0-.03,.01-.55,.23-1.19-.02-1.43-.57l-1.63-3.77c-.24-.56,.02-1.21,.58-1.44,.04-.02,.08-.03,.12-.05,.56-.23,1.2,.03,1.43,.6Z"/>
    <path class="cls-3" d="M349.93,28.66l1.41,3.86c.21,.56-.08,1.18-.64,1.39-.01,0-.02,0-.04,.01-.56,.21-1.18-.06-1.4-.62l-1.5-3.83c-.22-.56,.06-1.2,.62-1.42,.05-.02,.09-.03,.14-.05,.57-.21,1.2,.08,1.41,.65Z"/>
    <path class="cls-3" d="M353.32,27.49l1.28,3.91c.19,.57-.12,1.18-.69,1.37,0,0-.02,0-.03,0-.57,.19-1.19-.1-1.39-.67l-1.36-3.88c-.2-.57,.1-1.2,.67-1.39,.05-.02,.09-.03,.14-.05,.57-.19,1.19,.12,1.38,.7Z"/>
    <path class="cls-3" d="M356.75,26.44l1.14,3.95c.17,.58-.17,1.18-.74,1.35,0,0-.02,0-.03,0-.57,.17-1.18-.15-1.36-.72l-1.23-3.92c-.18-.58,.14-1.2,.72-1.37,.05-.01,.09-.03,.14-.04,.58-.17,1.19,.16,1.36,.74Z"/>
    <path class="cls-3" d="M360.21,25.5l1,3.99c.15,.58-.21,1.17-.79,1.32,0,0-.02,0-.03,0-.58,.15-1.18-.18-1.34-.76l-1.09-3.96c-.16-.58,.18-1.19,.77-1.34,.05-.01,.09-.02,.14-.04,.58-.15,1.18,.21,1.33,.79Z"/>
    <path class="cls-3" d="M363.7,24.69l.86,4.02c.13,.59-.25,1.16-.84,1.3,0,0-.01,0-.02,0-.59,.13-1.17-.23-1.31-.81l-.95-4c-.14-.59,.22-1.18,.81-1.32,.05-.01,.09-.02,.14-.03,.59-.13,1.18,.25,1.3,.84Z"/>
    <path class="cls-3" d="M367.22,24l.72,4.05c.11,.59-.29,1.15-.88,1.26,0,0-.02,0-.02,0-.59,.11-1.16-.27-1.28-.86l-.81-4.03c-.12-.59,.27-1.17,.86-1.29,.05,0,.1-.02,.14-.03,.59-.11,1.16,.29,1.27,.88Z"/>
    <path class="cls-3" d="M370.77,23.43l.58,4.07c.08,.59-.33,1.14-.92,1.23,0,0-.02,0-.02,0-.59,.09-1.15-.31-1.25-.9l-.67-4.06c-.1-.6,.31-1.16,.91-1.26,.05,0,.1-.01,.14-.02,.6-.09,1.15,.33,1.24,.93Z"/>
    <path class="cls-3" d="M374.33,22.99l.44,4.09c.06,.6-.37,1.13-.96,1.2,0,0-.02,0-.03,0-.6,.07-1.14-.35-1.22-.94l-.53-4.08c-.08-.6,.35-1.15,.95-1.22,.05,0,.1-.01,.15-.02,.6-.07,1.14,.37,1.21,.97Z"/>
    <path class="cls-3" d="M377.9,22.67l.29,4.1c.04,.6-.41,1.12-1.01,1.17,0,0-.02,0-.03,0-.6,.05-1.13-.39-1.18-.98l-.39-4.09c-.06-.6,.39-1.14,.99-1.19,.05,0,.1,0,.15-.01,.6-.05,1.13,.41,1.17,1.01Z"/>
    <path class="cls-3" d="M381.48,22.48l.15,4.11c.02,.6-.45,1.1-1.05,1.13,0,0-.02,0-.03,0-.6,.03-1.11-.43-1.15-1.03l-.24-4.1c-.04-.6,.42-1.13,1.03-1.15,.05,0,.1,0,.15,0,.6-.03,1.11,.45,1.14,1.05Z"/>
    <path class="cls-3" d="M385.07,22.41v4.11c0,.6-.48,1.09-1.08,1.09,0,0-.02,0-.03,0-.6,0-1.1-.46-1.11-1.06l-.1-4.11c-.01-.6,.47-1.11,1.07-1.12,.05,0,.1,0,.15,0,.61,0,1.1,.48,1.1,1.09Z"/>
    <path class="cls-3" d="M387.45,21.33s.09,0,.13,0c.61,.01,1.09,.52,1.07,1.13l-.14,4.11c-.02,.6-.52,1.07-1.12,1.05,0,0-.02,0-.03,0-.6-.01-1.08-.5-1.07-1.1l.04-4.11c0-.61,.51-1.09,1.12-1.08Z"/>
    <path class="cls-3" d="M391.07,21.48s.1,0,.15,0c.6,.03,1.06,.56,1.02,1.16l-.28,4.1c-.04,.6-.56,1.05-1.16,1.02,0,0-.02,0-.03,0-.6-.03-1.06-.54-1.04-1.14l.19-4.11c.03-.6,.54-1.07,1.15-1.04Z"/>
    <path class="cls-3" d="M394.68,21.74s.1,0,.15,.01c.6,.06,1.04,.6,.98,1.2l-.42,4.09c-.06,.6-.59,1.03-1.19,.97,0,0-.02,0-.02,0-.6-.05-1.04-.58-1-1.17l.33-4.1c.05-.6,.58-1.06,1.18-1Z"/>
    <path class="cls-3" d="M398.29,22.14s.1,.01,.15,.02c.6,.08,1.02,.63,.93,1.23l-.56,4.07c-.08,.59-.63,1.01-1.22,.93-.01,0-.02,0-.03,0-.59-.08-1.02-.61-.95-1.21l.47-4.08c.07-.6,.62-1.03,1.22-.96Z"/>
    <path class="cls-3" d="M401.87,22.66s.09,.02,.14,.02c.6,.1,1,.67,.89,1.26l-.71,4.05c-.1,.59-.67,.99-1.26,.89,0,0-.02,0-.03,0-.59-.1-1-.65-.91-1.24l.62-4.06c.09-.6,.65-1.01,1.25-.91Z"/>
    <path class="cls-3" d="M406.43,24.63l-.85,4.02c-.12,.59-.7,.96-1.29,.84,0,0-.02,0-.02,0-.59-.12-.98-.68-.86-1.27l.76-4.04c.11-.6,.69-.99,1.29-.87,.04,0,.09,.02,.13,.03,.59,.12,.98,.7,.85,1.3Z"/>
    <path class="cls-3" d="M409.92,25.44l-.99,3.99c-.14,.58-.73,.94-1.32,.8,0,0-.02,0-.02,0-.58-.14-.95-.72-.82-1.3l.9-4.01c.13-.59,.73-.96,1.32-.82,.04,.01,.09,.02,.13,.03,.59,.14,.95,.74,.81,1.32Z"/>
    <path class="cls-3" d="M413.38,26.37l-1.13,3.95c-.17,.58-.77,.91-1.35,.75,0,0-.01,0-.02,0-.58-.16-.92-.75-.77-1.33l1.04-3.98c.15-.59,.75-.94,1.34-.78,.05,.01,.09,.03,.14,.04,.58,.16,.92,.77,.75,1.35Z"/>
    <path class="cls-3" d="M416.1,26.05c.58,.18,.89,.8,.71,1.38l-1.6,4.94h0c-.35-.12-.7-.23-1.06-.34-.57-.18-.9-.78-.73-1.36l1.17-3.94c.17-.58,.79-.91,1.37-.73,.05,.01,.09,.03,.14,.04Z"/>
    <path class="cls-3" d="M420.2,28.6l-1.4,3.86c-.2,.57-.83,.86-1.4,.66,0,0-.02,0-.03,0-.56-.2-.87-.81-.68-1.38l1.31-3.89c.19-.58,.82-.88,1.39-.68,.04,.02,.09,.03,.13,.05,.57,.2,.86,.83,.66,1.4Z"/>
    <path class="cls-3" d="M423.54,29.89l-1.53,3.81c-.22,.56-.86,.83-1.42,.61,0,0-.01,0-.02,0-.56-.22-.84-.84-.63-1.4l1.45-3.84c.21-.57,.85-.86,1.42-.63,.04,.02,.09,.04,.13,.05,.56,.22,.83,.86,.61,1.42Z"/>
    <path class="cls-3" d="M426.83,31.3l-1.66,3.75c-.24,.55-.89,.8-1.44,.56,0,0-.01,0-.02,0-.55-.24-.81-.87-.58-1.42l1.58-3.79c.23-.56,.88-.82,1.44-.58,.04,.02,.08,.03,.12,.05,.56,.24,.81,.89,.56,1.44Z"/>
    <path class="cls-3" d="M326.89,46.98s-.01,0-.02,.01c-.48,.36-1.16,.27-1.53-.21l-2.5-3.27c-.37-.48-.28-1.17,.21-1.53,.04-.03,.08-.06,.12-.09,.48-.36,1.17-.25,1.53,.24l2.42,3.33c.35,.49,.25,1.16-.24,1.52Z"/>
    <path class="cls-3" d="M329.66,44.99s-.01,.01-.02,.02c-.49,.34-1.17,.23-1.52-.26l-2.38-3.35c-.35-.49-.23-1.18,.26-1.52,.04-.03,.08-.06,.12-.08,.5-.35,1.18-.21,1.52,.29l2.31,3.41c.34,.5,.21,1.17-.29,1.51Z"/>
    <path class="cls-3" d="M332.49,43.1s-.01,0-.02,.01c-.51,.32-1.18,.19-1.51-.31l-2.26-3.43c-.33-.51-.19-1.19,.32-1.52,.04-.03,.08-.05,.12-.08,.51-.33,1.19-.17,1.51,.34l2.19,3.48c.32,.51,.16,1.18-.34,1.5Z"/>
    <path class="cls-3" d="M335.38,41.31s-.01,0-.02,.01c-.52,.31-1.18,.15-1.5-.37l-2.14-3.51c-.31-.52-.15-1.19,.37-1.5,.04-.02,.08-.05,.12-.07,.52-.31,1.19-.13,1.5,.39l2.06,3.56c.3,.52,.12,1.18-.39,1.49Z"/>
    <path class="cls-3" d="M338.34,39.62s-.01,0-.02,.01c-.53,.29-1.19,.1-1.48-.42l-2.02-3.58c-.3-.53-.11-1.2,.42-1.49,.04-.02,.08-.05,.13-.07,.53-.29,1.2-.09,1.48,.45l1.94,3.63c.28,.53,.08,1.19-.44,1.47Z"/>
    <path class="cls-3" d="M341.35,38.03s-.02,0-.03,.01c-.54,.27-1.19,.06-1.47-.47l-1.89-3.65c-.28-.54-.07-1.2,.47-1.47,.04-.02,.09-.05,.13-.07,.54-.27,1.2-.04,1.46,.5l1.81,3.69c.26,.54,.04,1.19-.49,1.46Z"/>
    <path class="cls-3" d="M344.42,36.55s-.02,0-.02,.01c-.55,.25-1.19,.02-1.45-.52l-1.76-3.72c-.26-.55-.03-1.2,.52-1.46,.05-.02,.09-.04,.14-.06,.55-.25,1.2,0,1.45,.55l1.68,3.75c.25,.55,0,1.19-.55,1.44Z"/>
    <path class="cls-3" d="M347.54,35.18s-.02,0-.03,.01c-.55,.23-1.19-.02-1.43-.57l-1.63-3.77c-.24-.56,.02-1.21,.58-1.44,.04-.02,.08-.03,.12-.05,.56-.23,1.2,.03,1.43,.6l1.55,3.81c.23,.56-.04,1.19-.59,1.42Z"/>
    <path class="cls-3" d="M350.71,33.92s-.02,0-.04,.01c-.56,.21-1.18-.06-1.4-.62l-1.5-3.83c-.22-.56,.06-1.2,.62-1.42,.05-.02,.09-.03,.14-.05,.57-.21,1.2,.08,1.41,.65l1.41,3.86c.21,.56-.08,1.18-.64,1.39Z"/>
    <path class="cls-3" d="M353.91,32.77s-.02,0-.03,0c-.57,.19-1.19-.1-1.39-.67l-1.36-3.88c-.2-.57,.1-1.2,.67-1.39,.05-.02,.09-.03,.14-.05,.57-.19,1.19,.12,1.38,.7l1.28,3.91c.19,.57-.12,1.18-.69,1.37Z"/>
    <path class="cls-3" d="M357.15,31.74s-.02,0-.03,0c-.57,.17-1.18-.15-1.36-.72l-1.23-3.92c-.18-.58,.14-1.2,.72-1.37,.05-.01,.09-.03,.14-.04,.58-.17,1.19,.16,1.36,.74l1.14,3.95c.17,.58-.17,1.18-.74,1.35Z"/>
    <path class="cls-3" d="M360.43,30.81s-.02,0-.03,0c-.58,.15-1.18-.18-1.34-.76l-1.09-3.96c-.16-.58,.18-1.19,.77-1.34,.05-.01,.09-.02,.14-.04,.58-.15,1.18,.21,1.33,.79l1,3.99c.15,.58-.21,1.17-.79,1.32Z"/>
    <path class="cls-3" d="M363.73,30s-.01,0-.02,0c-.59,.13-1.17-.23-1.31-.81l-.95-4c-.14-.59,.22-1.18,.81-1.32,.05-.01,.09-.02,.14-.03,.59-.13,1.18,.25,1.3,.84l.86,4.02c.13,.59-.25,1.16-.84,1.3Z"/>
    <path class="cls-3" d="M367.07,29.31s-.02,0-.02,0c-.59,.11-1.16-.27-1.28-.86l-.81-4.03c-.12-.59,.27-1.17,.86-1.29,.05,0,.1-.02,.14-.03,.59-.11,1.16,.29,1.27,.88l.72,4.05c.11,.59-.29,1.15-.88,1.26Z"/>
    <path class="cls-3" d="M370.42,28.74s-.02,0-.02,0c-.59,.09-1.15-.31-1.25-.9l-.67-4.06c-.1-.6,.31-1.16,.91-1.26,.05,0,.1-.01,.14-.02,.6-.09,1.15,.33,1.24,.93l.58,4.07c.08,.59-.33,1.14-.92,1.23Z"/>
    <path class="cls-3" d="M373.8,28.28s-.02,0-.03,0c-.6,.07-1.14-.35-1.22-.94l-.53-4.08c-.08-.6,.35-1.15,.95-1.22,.05,0,.1-.01,.15-.02,.6-.07,1.14,.37,1.21,.97l.44,4.09c.06,.6-.37,1.13-.96,1.2Z"/>
    <path class="cls-3" d="M377.18,27.94s-.02,0-.03,0c-.6,.05-1.13-.39-1.18-.98l-.39-4.09c-.06-.6,.39-1.14,.99-1.19,.05,0,.1,0,.15-.01,.6-.05,1.13,.41,1.17,1.01l.29,4.1c.04,.6-.41,1.12-1.01,1.17Z"/>
    <path class="cls-3" d="M380.58,27.71s-.02,0-.03,0c-.6,.03-1.11-.43-1.15-1.03l-.24-4.1c-.04-.6,.42-1.13,1.03-1.15,.05,0,.1,0,.15,0,.6-.03,1.11,.45,1.14,1.05l.15,4.11c.02,.6-.45,1.1-1.05,1.13Z"/>
    <path class="cls-3" d="M383.99,27.61s-.02,0-.03,0c-.6,0-1.1-.46-1.11-1.06l-.1-4.11c-.01-.6,.47-1.11,1.07-1.12,.05,0,.1,0,.15,0,.61,0,1.1,.48,1.1,1.09v4.11c0,.6-.48,1.09-1.08,1.09Z"/>
    <path class="cls-3" d="M388.65,22.46l-.14,4.11c-.02,.6-.52,1.07-1.12,1.05,0,0-.02,0-.03,0-.6-.01-1.08-.5-1.07-1.1l.04-4.11c0-.61,.51-1.09,1.12-1.08,.04,0,.09,0,.13,0,.61,.01,1.09,.52,1.07,1.13Z"/>
    <path class="cls-3" d="M392.23,22.65l-.28,4.1c-.04,.6-.56,1.05-1.16,1.02,0,0-.02,0-.03,0-.6-.03-1.06-.54-1.04-1.14l.19-4.11c.03-.6,.54-1.07,1.15-1.04,.05,0,.1,0,.15,0,.6,.03,1.06,.56,1.02,1.16Z"/>
    <path class="cls-3" d="M395.81,22.95l-.42,4.09c-.06,.6-.59,1.03-1.19,.97,0,0-.02,0-.02,0-.6-.05-1.04-.58-1-1.17l.33-4.1c.05-.6,.58-1.06,1.18-1,.05,0,.1,0,.15,.01,.6,.06,1.04,.6,.98,1.2Z"/>
    <path class="cls-3" d="M399.37,23.39l-.56,4.07c-.08,.59-.63,1.01-1.22,.93-.01,0-.02,0-.03,0-.59-.08-1.02-.61-.95-1.21l.47-4.08c.07-.6,.62-1.03,1.22-.96,.05,0,.1,.01,.15,.02,.6,.08,1.02,.63,.93,1.23Z"/>
    <path class="cls-3" d="M402.91,23.95l-.71,4.05c-.1,.59-.67,.99-1.26,.89,0,0-.02,0-.03,0-.59-.1-1-.65-.91-1.24l.62-4.06c.09-.6,.65-1.01,1.25-.91,.05,0,.09,.02,.14,.02,.6,.1,1,.67,.89,1.26Z"/>
    <path class="cls-3" d="M406.43,24.63l-.85,4.02c-.12,.59-.7,.96-1.29,.84,0,0-.02,0-.02,0-.59-.12-.98-.68-.86-1.27l.76-4.04c.11-.6,.69-.99,1.29-.87,.04,0,.09,.02,.13,.03,.59,.12,.98,.7,.85,1.3Z"/>
    <path class="cls-3" d="M409.92,25.44l-.99,3.99c-.14,.58-.73,.94-1.32,.8,0,0-.02,0-.02,0-.58-.14-.95-.72-.82-1.3l.9-4.01c.13-.59,.73-.96,1.32-.82,.04,.01,.09,.02,.13,.03,.59,.14,.95,.74,.81,1.32Z"/>
    <path class="cls-3" d="M413.38,26.37l-1.13,3.95c-.17,.58-.77,.91-1.35,.75,0,0-.01,0-.02,0-.58-.16-.92-.75-.77-1.33l1.04-3.98c.15-.59,.75-.94,1.34-.78,.05,.01,.09,.03,.14,.04,.58,.16,.92,.77,.75,1.35Z"/>
    <path class="cls-3" d="M416.1,26.05c.58,.18,.89,.8,.71,1.38l-1.6,4.94h0c-.35-.12-.7-.23-1.06-.34-.57-.18-.9-.78-.73-1.36l1.17-3.94c.17-.58,.79-.91,1.37-.73,.05,.01,.09,.03,.14,.04Z"/>
    <path class="cls-3" d="M420.2,28.6l-1.4,3.86c-.2,.57-.83,.86-1.4,.66,0,0-.02,0-.03,0-.56-.2-.87-.81-.68-1.38l1.31-3.89c.19-.58,.82-.88,1.39-.68,.04,.02,.09,.03,.13,.05,.57,.2,.86,.83,.66,1.4Z"/>
    <path class="cls-3" d="M423.54,29.89l-1.53,3.81c-.22,.56-.86,.83-1.42,.61,0,0-.01,0-.02,0-.56-.22-.84-.84-.63-1.4l1.45-3.84c.21-.57,.85-.86,1.42-.63,.04,.02,.09,.04,.13,.05,.56,.22,.83,.86,.61,1.42Z"/>
    <path class="cls-3" d="M426.83,31.3l-1.66,3.75c-.24,.55-.89,.8-1.44,.56,0,0-.01,0-.02,0-.55-.24-.81-.87-.58-1.42l1.58-3.79c.23-.56,.88-.82,1.44-.58,.04,.02,.08,.03,.12,.05,.56,.24,.81,.89,.56,1.44Z"/>
    <g>
      <path class="cls-2" d="M413.54,219.63l1.18,3.94c.17,.58-.16,1.19-.74,1.36-.05,.01-.09,.03-.14,.04-.58,.17-1.19-.18-1.35-.76l-1.09-3.96c-.16-.58,.18-1.17,.76-1.34,0,0,.02,0,.03,0,.58-.17,1.18,.16,1.35,.73Z"/>
      <path class="cls-2" d="M416.82,218.58l1.32,3.9c.19,.57-.11,1.2-.69,1.39-.05,.02-.09,.03-.14,.05-.58,.19-1.19-.14-1.37-.71l-1.23-3.93c-.18-.57,.14-1.18,.71-1.37,0,0,.02,0,.03,0,.57-.19,1.19,.12,1.38,.69Z"/>
      <path class="cls-2" d="M420.06,217.42l1.45,3.85c.21,.57-.07,1.2-.64,1.41-.05,.02-.09,.03-.14,.05-.57,.21-1.2-.09-1.4-.67l-1.37-3.88c-.2-.57,.1-1.18,.66-1.39,0,0,.02,0,.02,0,.56-.21,1.19,.07,1.4,.64Z"/>
      <path class="cls-2" d="M423.26,216.15l1.59,3.8c.23,.56-.03,1.2-.59,1.43-.04,.02-.09,.04-.13,.05-.56,.23-1.2-.05-1.42-.62l-1.5-3.83c-.22-.56,.06-1.19,.61-1.41,0,0,.02,0,.02,0,.56-.23,1.19,.03,1.42,.59Z"/>
      <path class="cls-2" d="M426.41,214.76l1.72,3.74c.25,.55,.01,1.2-.54,1.45-.04,.02-.09,.04-.13,.06-.55,.25-1.2-.01-1.44-.57l-1.63-3.78c-.24-.55,.01-1.19,.56-1.43,0,0,.01,0,.02,0,.55-.25,1.19,0,1.44,.54Z"/>
      <path class="cls-2" d="M429.51,213.26l1.85,3.68c.27,.54,.05,1.2-.49,1.47-.04,.02-.09,.04-.13,.06-.54,.27-1.2,.03-1.46-.51l-1.77-3.72c-.26-.54-.03-1.19,.51-1.45,0,0,.01,0,.02-.01,.54-.26,1.19-.05,1.46,.49Z"/>
      <path class="cls-2" d="M432.56,211.65l1.97,3.61c.29,.53,.1,1.2-.44,1.48-.04,.02-.09,.05-.13,.07-.53,.29-1.2,.07-1.48-.46l-1.89-3.65c-.28-.53-.07-1.18,.46-1.47,0,0,.02,0,.03-.01,.53-.28,1.19-.09,1.48,.44Z"/>
      <path class="cls-2" d="M435.54,209.94l2.1,3.54c.31,.52,.14,1.19-.38,1.5-.04,.02-.08,.05-.13,.07-.52,.3-1.2,.12-1.49-.41l-2.02-3.58c-.29-.52-.11-1.18,.41-1.48,0,0,.01,0,.02-.01,.52-.3,1.19-.13,1.49,.38Z"/>
      <path class="cls-2" d="M440.35,213.11s-.07,.05-.11,.07c-.52,.32-1.2,.16-1.51-.36l-2.14-3.51c-.31-.51-.15-1.18,.36-1.5,0,0,.01,0,.02-.01,.51-.32,1.18-.18,1.51,.33l2.22,3.46c.33,.51,.18,1.19-.34,1.51Z"/>
      <path class="cls-2" d="M437.26,214.98s-.08,.05-.13,.07c-.52,.3-1.2,.12-1.49-.41l-2.02-3.58c-.29-.52-.11-1.18,.41-1.48,0,0,.01,0,.02-.01,.52-.3,1.19-.13,1.49,.38l2.1,3.54c.31,.52,.14,1.19-.38,1.5Z"/>
      <path class="cls-2" d="M434.09,216.75s-.09,.05-.13,.07c-.53,.29-1.2,.07-1.48-.46l-1.89-3.65c-.28-.53-.07-1.18,.46-1.47,0,0,.02,0,.03-.01,.53-.28,1.19-.09,1.48,.44l1.97,3.61c.29,.53,.1,1.2-.44,1.48Z"/>
      <path class="cls-2" d="M430.87,218.4s-.09,.04-.13,.06c-.54,.27-1.2,.03-1.46-.51l-1.77-3.72c-.26-.54-.03-1.19,.51-1.45,0,0,.01,0,.02-.01,.54-.26,1.19-.05,1.46,.49l1.85,3.68c.27,.54,.05,1.2-.49,1.47Z"/>
      <path class="cls-2" d="M427.59,219.95s-.09,.04-.13,.06c-.55,.25-1.2-.01-1.44-.57l-1.63-3.78c-.24-.55,.01-1.19,.56-1.43,0,0,.01,0,.02,0,.55-.25,1.19,0,1.44,.54l1.72,3.74c.25,.55,.01,1.2-.54,1.45Z"/>
      <path class="cls-2" d="M424.26,221.37s-.09,.04-.13,.05c-.56,.23-1.2-.05-1.42-.62l-1.5-3.83c-.22-.56,.06-1.19,.61-1.41,0,0,.02,0,.02,0,.56-.23,1.19,.03,1.42,.59l1.59,3.8c.23,.56-.03,1.2-.59,1.43Z"/>
      <path class="cls-2" d="M420.88,222.68s-.09,.03-.14,.05c-.57,.21-1.2-.09-1.4-.67l-1.37-3.88c-.2-.57,.1-1.18,.66-1.39,0,0,.02,0,.02,0,.56-.21,1.19,.07,1.4,.64l1.45,3.85c.21,.57-.07,1.2-.64,1.41Z"/>
      <path class="cls-2" d="M417.45,223.87s-.09,.03-.14,.05c-.58,.19-1.19-.14-1.37-.71l-1.23-3.93c-.18-.57,.14-1.18,.71-1.37,0,0,.02,0,.03,0,.57-.19,1.19,.12,1.38,.69l1.32,3.9c.19,.57-.11,1.2-.69,1.39Z"/>
      <path class="cls-2" d="M413.99,224.93s-.09,.03-.14,.04c-.58,.17-1.19-.18-1.35-.76l-1.09-3.96c-.16-.58,.18-1.17,.76-1.34,0,0,.02,0,.03,0,.58-.17,1.18,.16,1.35,.73l1.18,3.94c.17,.58-.16,1.19-.74,1.36Z"/>
      <path class="cls-2" d="M410.49,225.88s-.09,.02-.14,.04c-.59,.15-1.18-.22-1.32-.81l-.95-4c-.14-.58,.22-1.17,.8-1.31,0,0,.02,0,.02,0,.58-.15,1.18,.2,1.33,.78l1.04,3.98c.15,.59-.2,1.19-.78,1.33Z"/>
      <path class="cls-2" d="M406.96,226.7s-.1,.02-.14,.03c-.59,.13-1.17-.26-1.29-.85l-.81-4.03c-.12-.59,.26-1.16,.85-1.28,0,0,.02,0,.03,0,.59-.13,1.17,.24,1.3,.83l.9,4.01c.13,.59-.24,1.18-.83,1.31Z"/>
      <path class="cls-2" d="M473.6,179.54c-7.54,12.2-17.55,22.8-29.39,31.01-.5,.35-1.19,.21-1.52-.29l-2.3-3.41c-.34-.5-.21-1.17,.29-1.51,11.09-7.7,20.47-17.63,27.54-29.06,.32-.51,.98-.68,1.49-.37l3.53,2.12c.52,.31,.69,.99,.37,1.51Z"/>
    </g>
    <g>
      <path class="cls-3" d="M312.21,43.96c-9.08,8.17-16.79,17.85-22.72,28.64-.35,.64-1.14,.88-1.78,.54l-6.76-3.6c-.65-.34-.89-1.15-.54-1.79,3.24-5.91,6.97-11.53,11.16-16.82,4.19-5.28,8.81-10.2,13.82-14.7,.54-.49,1.39-.43,1.87,.12l5.07,5.77c.48,.55,.42,1.37-.11,1.86Z"/>
      <path class="cls-3" d="M321.4,36.54c-1.84,1.32-3.63,2.7-5.37,4.13-.56,.46-1.39,.39-1.85-.17l-4.93-5.88c-.47-.56-.39-1.41,.18-1.87,.98-.8,1.97-1.59,2.98-2.37,1.01-.77,2.03-1.53,3.06-2.27,.6-.43,1.43-.29,1.86,.31l4.41,6.28c.42,.59,.27,1.41-.32,1.83Z"/>
      <path class="cls-3" d="M340.7,25.42c-5.2,2.32-10.18,5.04-14.91,8.11-.61,.4-1.42,.23-1.82-.37l-4.25-6.38c-.41-.61-.24-1.44,.37-1.84,2.63-1.71,5.32-3.31,8.08-4.81,2.75-1.5,5.57-2.88,8.43-4.16,.67-.3,1.45,.01,1.74,.69l3.04,7.03c.29,.67-.02,1.43-.68,1.73Z"/>
      <path class="cls-3" d="M502.91,114.01l-7.64,.72c-.72,.07-1.36-.46-1.44-1.18-.23-2.19-.53-4.36-.89-6.51-.12-.71,.35-1.39,1.06-1.52l7.54-1.36c.73-.13,1.41,.36,1.54,1.08,.21,1.21,.39,2.43,.56,3.65,.17,1.22,.32,2.44,.45,3.66,.08,.73-.45,1.39-1.19,1.46Z"/>
      <path class="cls-3" d="M504.76,125.15c0,3.93-.19,7.86-.58,11.77-.07,.73-.73,1.26-1.46,1.18l-7.63-.84c-.72-.08-1.24-.73-1.17-1.45,.34-3.51,.51-7.06,.51-10.66,0-2.1-.06-4.18-.18-6.24-.04-.72,.51-1.33,1.23-1.38l7.66-.53c.73-.05,1.37,.5,1.41,1.23,.13,2.31,.2,4.61,.2,6.93Z"/>
      <path class="cls-3" d="M502.23,142c.72,.1,1.23,.78,1.12,1.5-1.01,6.5-2.56,12.91-4.62,19.17-2.07,6.25-4.65,12.32-7.71,18.15-.34,.65-1.15,.89-1.79,.54l-6.74-3.64c-.64-.35-.87-1.14-.54-1.78,5.49-10.42,9.34-21.84,11.21-33.91,.11-.72,.77-1.21,1.49-1.11l7.59,1.09Z"/>
      <path class="cls-3" d="M487.36,184.65c.63,.37,.85,1.18,.47,1.81-.53,.89-1.08,1.77-1.63,2.65-.55,.88-1.12,1.75-1.7,2.61-.41,.61-1.24,.76-1.84,.35l-6.32-4.34c-.6-.41-.75-1.23-.34-1.83,1.02-1.52,2-3.06,2.94-4.64,.37-.62,1.17-.83,1.8-.47l6.62,3.86Z"/>
      <path class="cls-3" d="M464.08,213.2c.49,.55,.44,1.39-.11,1.87-4.99,4.37-10.34,8.32-15.99,11.8-5.65,3.48-11.58,6.49-17.72,8.99-.68,.28-1.45-.06-1.72-.74l-2.8-7.11c-.27-.67,.06-1.43,.74-1.71,11.27-4.6,21.6-11.03,30.62-18.93,.55-.48,1.37-.43,1.86,.11l5.12,5.72Z"/>
      <path class="cls-3" d="M425.6,236.24c.25,.69-.11,1.45-.81,1.7-1.04,.36-2.08,.71-3.13,1.05-1.05,.34-2.11,.66-3.17,.96-.7,.2-1.44-.21-1.63-.92l-2.05-7.37c-.19-.7,.21-1.42,.91-1.62,1.88-.55,3.74-1.14,5.58-1.78,.68-.24,1.43,.11,1.68,.79l2.61,7.19Z"/>
      <path class="cls-3" d="M381.59,16.01c-12.5,.41-24.47,2.92-35.57,7.19-.68,.26-1.44-.07-1.71-.74l-4.94-12.4c-.27-.68,.06-1.45,.74-1.72,6.56-2.53,13.31-4.51,20.2-5.91C367.21,1.04,374.21,.23,381.23,0c.73-.02,1.34,.56,1.36,1.29l.29,13.37c.02,.73-.56,1.32-1.28,1.35Z"/>
    </g>
    <g>
      <path class="cls-2" d="M467.64,40.43l-5.35,5.5c-.51,.52-1.33,.53-1.86,.03-1.45-1.38-2.94-2.72-4.46-4.01-.55-.47-.63-1.29-.17-1.85l4.9-5.91c.47-.57,1.31-.64,1.87-.16,.86,.73,1.71,1.47,2.55,2.22,.84,.75,1.67,1.52,2.48,2.3,.53,.51,.55,1.35,.04,1.88Z"/>
      <path class="cls-2" d="M488.12,56.13l-11.1,7.45c-.6,.4-1.41,.24-1.83-.35-3.24-4.69-6.83-9.12-10.74-13.24-.5-.53-.49-1.35,.03-1.86l9.59-9.32c.52-.51,1.37-.5,1.87,.03,2.29,2.4,4.48,4.9,6.57,7.48,2.09,2.58,4.08,5.24,5.96,7.98,.41,.6,.25,1.43-.36,1.84Z"/>
      <path class="cls-2" d="M510.95,98.68l-17.55,3.69c-.71,.15-1.4-.3-1.56-1.01-2.65-11.93-7.25-23.12-13.45-33.23-.38-.62-.2-1.43,.42-1.81l15.19-9.55c.62-.39,1.44-.2,1.82,.42,3.78,6.14,7.04,12.59,9.74,19.28,2.71,6.69,4.85,13.59,6.41,20.63,.16,.71-.3,1.42-1.02,1.57Z"/>
    </g>
    <path class="cls-3" d="M437,130.98c0,8.95-2.1,17.4-5.84,24.9-2.26,4.54-5.12,8.74-8.48,12.47-.61,.67-1.68-.08-1.26-.88s.82-1.61,1.21-2.42c3.36-7.19,5.24-15.21,5.24-23.68,0-30.82-25.58-56.2-56.41-55.95-7.49,.06-14.63,1.59-21.14,4.32-4.77,2-7.28,3.41-12.08,6.53-.59,.38-1.31-.28-.96-.9,9.56-17.14,27.88-28.72,48.89-28.72,25.2,0,46.51,16.66,53.52,39.57,.22,.72-.81,1.13-1.14,.45-9.05-18.72-28.22-31.63-50.41-31.63-1.19,0-2.38,.04-3.55,.11,29.25,1.83,52.41,26.13,52.41,55.84Z"/>
    <g>
      <path class="cls-3" d="M330.46,76.88c-.05,.06-.1,.11-.15,.17-.19,.22-.52,.24-.74,.05l-3.41-2.94c-.22-.19-.25-.53-.05-.75,.03-.04,.07-.08,.1-.12,.03-.04,.07-.08,.1-.11,.19-.22,.53-.24,.75-.04l3.36,3c.22,.19,.24,.52,.04,.74Z"/>
      <path class="cls-3" d="M332.18,74.99c-.05,.05-.1,.11-.15,.16-.2,.21-.53,.23-.75,.03l-3.3-3.06c-.21-.2-.23-.53-.03-.75,.07-.08,.14-.15,.21-.23l.75-.02,3.25,3.12c.21,.2,.22,.53,.02,.74Z"/>
      <path class="cls-3" d="M333.97,73.17c-.05,.05-.11,.11-.16,.16-.21,.21-.54,.21-.75,0l-3.2-3.17c-.21-.21-.21-.54,0-.75,.07-.07,.14-.14,.22-.22h.75s3.14,3.23,3.14,3.23c.2,.21,.2,.54,0,.74Z"/>
      <path class="cls-3" d="M335.81,71.42c-.05,.05-.11,.1-.16,.15-.21,.2-.55,.19-.74-.02l-3.09-3.28,.03-.75c.07-.07,.15-.14,.23-.21,.22-.2,.55-.18,.75,.03l3.03,3.34c.2,.22,.18,.55-.03,.74Z"/>
      <path class="cls-3" d="M337.72,69.73c-.06,.05-.11,.1-.17,.14-.22,.19-.55,.17-.74-.05l-2.97-3.39c-.19-.22-.17-.56,.05-.75,.04-.03,.08-.07,.12-.1,.04-.03,.08-.07,.11-.1,.22-.19,.56-.16,.75,.06l2.91,3.44c.19,.22,.16,.55-.06,.74Z"/>
      <path class="cls-3" d="M339.68,68.1c-.06,.05-.12,.09-.17,.14-.23,.18-.56,.15-.74-.08l-2.85-3.49c-.18-.23-.15-.56,.08-.74,.04-.03,.08-.07,.12-.1,.04-.03,.08-.07,.12-.1,.23-.18,.56-.14,.74,.09l2.79,3.54c.18,.23,.14,.56-.09,.74Z"/>
      <path class="cls-3" d="M341.7,66.55c-.06,.04-.12,.09-.18,.13-.23,.17-.56,.13-.74-.1l-2.72-3.59c-.18-.23-.13-.56,.1-.74,.04-.03,.08-.06,.12-.09,.04-.03,.08-.06,.13-.09,.24-.17,.57-.12,.74,.11l2.66,3.64c.17,.24,.12,.56-.11,.74Z"/>
      <path class="cls-3" d="M343.77,65.06c-.06,.04-.12,.09-.19,.13-.24,.17-.57,.11-.73-.13l-2.6-3.68c-.17-.24-.11-.57,.13-.74,.04-.03,.09-.06,.13-.09,.04-.03,.09-.06,.13-.09,.24-.17,.57-.1,.74,.14l2.53,3.73c.16,.24,.1,.57-.14,.73Z"/>
      <path class="cls-3" d="M345.89,63.65c-.06,.04-.12,.08-.19,.12-.24,.16-.57,.09-.73-.15l-2.47-3.77c-.16-.24-.09-.57,.16-.73,.04-.03,.09-.06,.13-.08,.04-.03,.09-.06,.13-.08,.25-.16,.57-.08,.73,.17l2.4,3.81c.16,.25,.08,.57-.16,.73Z"/>
      <path class="cls-3" d="M348.06,62.32c-.06,.04-.13,.07-.19,.11-.25,.15-.57,.07-.72-.18l-2.34-3.86c-.15-.25-.07-.58,.18-.73,.04-.03,.09-.05,.13-.08,.04-.03,.09-.05,.13-.08,.25-.15,.58-.06,.72,.19l2.27,3.9c.15,.25,.06,.57-.19,.72Z"/>
      <path class="cls-3" d="M350.28,61.06c-.06,.04-.13,.07-.19,.11-.25,.14-.57,.05-.72-.2l-2.2-3.93c-.14-.26-.05-.58,.21-.72,.05-.02,.09-.05,.14-.07,.05-.02,.09-.05,.14-.07,.26-.14,.58-.04,.72,.22l2.13,3.97c.14,.26,.04,.57-.21,.71Z"/>
      <path class="cls-3" d="M352.54,59.88c-.07,.03-.13,.07-.2,.1-.26,.13-.58,.03-.71-.23l-2.06-4.01c-.13-.26-.03-.58,.23-.71,.05-.02,.09-.05,.14-.07,.05-.02,.09-.05,.14-.07,.26-.13,.58-.02,.71,.24l1.99,4.05c.13,.26,.02,.57-.24,.7Z"/>
      <path class="cls-3" d="M354.84,58.78c-.07,.03-.13,.06-.2,.09-.26,.12-.58,0-.7-.25l-1.92-4.08c-.12-.26,0-.58,.26-.7,.05-.02,.09-.04,.14-.06,.05-.02,.1-.04,.14-.07,.27-.12,.58,0,.7,.27l1.85,4.11c.12,.27,0,.58-.26,.7Z"/>
      <path class="cls-3" d="M357.17,57.76c-.07,.03-.14,.06-.21,.09-.27,.11-.58-.01-.69-.28l-1.77-4.14c-.12-.27,.01-.58,.28-.7,.05-.02,.1-.04,.14-.06,.05-.02,.09-.04,.14-.06,.27-.11,.58,.02,.69,.29l1.7,4.17c.11,.27-.02,.57-.29,.69Z"/>
      <path class="cls-3" d="M359.54,56.82c-.07,.03-.14,.05-.21,.08-.27,.1-.58-.03-.68-.3l-1.63-4.2,.31-.69c.1-.04,.19-.07,.29-.11,.27-.1,.58,.04,.68,.31l1.56,4.23c.1,.27-.04,.57-.31,.68Z"/>
      <path class="cls-3" d="M361.94,55.96c-.07,.02-.14,.05-.21,.07-.28,.09-.57-.05-.67-.33l-1.48-4.26c-.1-.28,.05-.58,.33-.67,.05-.02,.1-.03,.15-.05s.1-.03,.15-.05c.28-.09,.58,.06,.67,.34l1.41,4.28c.09,.28-.06,.57-.33,.66Z"/>
      <path class="cls-3" d="M364.37,55.19c-.07,.02-.14,.04-.21,.06-.28,.08-.57-.07-.66-.35l-1.33-4.31,.36-.66c.1-.03,.19-.06,.29-.08,.28-.08,.57,.08,.66,.36l1.26,4.33c.08,.28-.08,.57-.36,.65Z"/>
      <path class="cls-3" d="M366.83,54.51c-.07,.02-.14,.04-.21,.06-.28,.07-.57-.09-.65-.37l-1.18-4.35c-.08-.28,.09-.57,.37-.65,.05-.01,.1-.03,.15-.04,.05-.01,.1-.03,.15-.04,.28-.07,.57,.1,.64,.38l1.11,4.37c.07,.28-.1,.57-.38,.64Z"/>
      <path class="cls-3" d="M369.3,53.91c-.07,.02-.14,.03-.22,.05-.28,.06-.57-.11-.63-.39l-1.03-4.39c-.07-.28,.11-.57,.4-.64,.05-.01,.1-.02,.15-.03,.05-.01,.1-.02,.15-.03,.29-.06,.57,.12,.63,.4l.95,4.4c.06,.28-.12,.56-.4,.63Z"/>
      <path class="cls-3" d="M371.8,53.39c-.07,.01-.15,.03-.22,.04-.29,.05-.56-.13-.62-.42l-.87-4.42c-.06-.29,.13-.57,.42-.62,.05,0,.1-.02,.15-.03,.05,0,.1-.02,.15-.03,.29-.05,.56,.14,.62,.43l.8,4.43c.05,.29-.14,.56-.43,.61Z"/>
      <path class="cls-3" d="M374.31,52.97c-.07,.01-.15,.02-.22,.03-.29,.04-.56-.15-.6-.44l-.72-4.45c-.05-.29,.15-.56,.44-.61,.05,0,.1-.02,.15-.02,.05,0,.1-.02,.16-.02,.29-.04,.56,.16,.6,.45l.64,4.46c.04,.29-.16,.55-.45,.6Z"/>
      <path class="cls-3" d="M376.84,52.63c-.07,0-.15,.02-.22,.03-.29,.03-.55-.17-.59-.46l-.56-4.47c-.04-.29,.17-.56,.46-.59,.1-.01,.2-.02,.31-.04l.59,.47,.49,4.48c.03,.29-.18,.55-.47,.58Z"/>
      <path class="cls-3" d="M379.37,52.38c-.07,0-.15,.01-.22,.02-.29,.02-.55-.19-.57-.48l-.41-4.48c-.03-.29,.19-.55,.48-.57,.05,0,.1,0,.15-.01,.05,0,.1,0,.15-.01,.29-.02,.55,.2,.57,.49l.33,4.49c.02,.29-.2,.54-.49,.56Z"/>
      <path class="cls-3" d="M381.92,52.22c-.07,0-.15,0-.22,.01-.29,.01-.54-.21-.56-.5l-.25-4.5c-.02-.29,.21-.54,.5-.56,.1,0,.2,0,.31-.01l.55,.51,.17,4.5c.01,.29-.22,.53-.51,.55Z"/>
      <path class="cls-3" d="M384.46,52.15c-.07,0-.15,0-.22,0-.29,0-.53-.23-.54-.52l-.09-4.5c0-.29,.23-.54,.52-.54,.05,0,.1,0,.15,0,.05,0,.1,0,.15,0,.29,0,.53,.23,.53,.53v4.5c.02,.29-.22,.53-.51,.53Z"/>
      <path class="cls-3" d="M387.7,47.15l-.14,4.5c0,.29-.25,.52-.54,.51-.08,0-.15,0-.23,0-.29,0-.52-.24-.52-.53l.06-4.5c0-.29,.24-.53,.54-.52,.05,0,.1,0,.16,0,.05,0,.1,0,.16,0,.29,0,.52,.25,.51,.54Z"/>
      <path class="cls-3" d="M390.42,47.29l-.3,4.49c-.02,.29-.27,.51-.56,.49-.07,0-.15,0-.22-.01-.29-.02-.51-.26-.5-.55l.22-4.5c.01-.29,.26-.52,.56-.5,.05,0,.1,0,.15,0,.05,0,.1,0,.16,0,.29,.02,.51,.27,.49,.56Z"/>
      <path class="cls-3" d="M393.13,47.52l-.46,4.48c-.03,.29-.29,.5-.58,.47-.07,0-.15-.01-.22-.02-.29-.03-.5-.28-.48-.57l.38-4.49c.02-.29,.28-.51,.57-.48,.05,0,.1,0,.16,.01,.05,0,.1,0,.15,.01,.29,.03,.5,.29,.47,.58Z"/>
      <path class="cls-3" d="M395.84,47.84l-.61,4.47c-.04,.29-.3,.49-.59,.45-.07,0-.15-.02-.22-.03-.29-.04-.5-.3-.46-.59l.53-4.48c.03-.29,.3-.5,.59-.46,.05,0,.1,.01,.15,.02s.1,.01,.16,.02c.29,.04,.49,.31,.45,.6Z"/>
      <path class="cls-3" d="M398.53,48.26l-.77,4.44c-.05,.29-.32,.48-.61,.43-.07-.01-.15-.02-.22-.04-.29-.05-.48-.31-.44-.6l.69-4.46c.04-.29,.32-.49,.61-.44,.05,0,.1,.02,.15,.03,.05,0,.1,.02,.15,.02,.29,.05,.48,.32,.43,.61Z"/>
      <path class="cls-3" d="M401.2,48.77l-.92,4.42c-.06,.28-.34,.47-.62,.41-.07-.01-.15-.03-.22-.04-.29-.06-.47-.33-.42-.62l.85-4.44c.05-.29,.33-.48,.62-.42,.05,.01,.1,.02,.15,.03,.05,.01,.1,.02,.15,.03,.29,.06,.47,.34,.41,.63Z"/>
      <path class="cls-3" d="M403.86,49.37l-1.08,4.39c-.07,.28-.35,.45-.64,.39-.07-.02-.14-.03-.22-.05-.28-.07-.46-.35-.4-.63l1-4.41c.06-.29,.35-.46,.64-.4,.05,.01,.1,.02,.15,.04,.05,.01,.1,.02,.15,.04,.29,.07,.46,.35,.39,.64Z"/>
      <path class="cls-3" d="M406.49,50.07l-1.23,4.36c-.08,.28-.37,.44-.65,.36-.07-.02-.14-.04-.21-.06-.28-.08-.45-.36-.37-.64l1.16-4.38c.08-.28,.37-.45,.65-.37,.05,.01,.1,.03,.15,.04,.05,.01,.1,.03,.15,.04,.28,.08,.45,.37,.37,.65Z"/>
      <path class="cls-3" d="M409.1,50.85l-1.39,4.32c-.09,.28-.39,.43-.66,.34-.07-.02-.14-.04-.21-.07-.28-.09-.43-.38-.35-.66l1.31-4.34c.08-.28,.38-.44,.66-.35,.05,.02,.1,.03,.15,.05,.05,.02,.1,.03,.15,.05,.28,.09,.43,.39,.34,.66Z"/>
      <path class="cls-3" d="M411.68,51.73l-1.54,4.28c-.1,.27-.4,.42-.68,.32-.07-.03-.14-.05-.21-.08-.27-.1-.42-.39-.33-.67l1.47-4.3c.09-.28,.4-.43,.67-.33,.05,.02,.1,.03,.15,.05,.05,.02,.1,.03,.14,.05,.28,.1,.42,.4,.32,.68Z"/>
      <path class="cls-3" d="M414.23,52.7l-1.69,4.23c-.11,.27-.42,.4-.69,.29-.07-.03-.14-.05-.21-.08-.27-.11-.41-.41-.3-.68l1.62-4.26c.1-.27,.41-.41,.68-.31l.29,.11,.3,.69Z"/>
      <path class="cls-3" d="M416.74,53.76l-1.84,4.18c-.12,.27-.43,.39-.7,.27-.07-.03-.14-.06-.2-.09-.26-.12-.39-.42-.28-.69l1.77-4.21c.11-.27,.42-.4,.69-.28,.05,.02,.1,.04,.14,.06,.05,.02,.09,.04,.14,.06,.27,.12,.39,.43,.27,.7Z"/>
      <path class="cls-3" d="M419.21,54.9l-1.99,4.12c-.13,.26-.44,.37-.71,.24-.07-.03-.13-.06-.2-.09-.26-.12-.38-.44-.25-.7l1.92-4.15,.71-.25c.09,.04,.18,.09,.28,.13,.26,.13,.37,.44,.25,.71Z"/>
      <path class="cls-3" d="M421.64,56.13l-2.14,4.06c-.14,.26-.45,.36-.71,.22-.07-.03-.13-.07-.2-.1-.26-.13-.36-.45-.23-.71l2.07-4.1c.13-.26,.45-.37,.71-.23,.05,.02,.09,.05,.14,.07,.05,.02,.09,.05,.14,.07,.26,.14,.36,.46,.22,.71Z"/>
      <path class="cls-3" d="M424.03,57.44l-2.29,3.99c-.14,.25-.47,.34-.72,.2-.06-.04-.13-.07-.19-.11-.25-.14-.35-.46-.21-.72l2.22-4.03c.14-.26,.47-.35,.72-.21,.04,.02,.09,.05,.13,.08,.04,.02,.09,.05,.13,.07,.26,.14,.35,.47,.2,.72Z"/>
      <path class="cls-3" d="M426.37,58.83l-2.43,3.92c-.15,.25-.48,.32-.73,.17-.06-.04-.13-.08-.19-.12-.25-.15-.33-.47-.18-.72l2.36-3.96c.15-.25,.48-.33,.73-.18,.04,.03,.09,.05,.13,.08,.04,.03,.09,.05,.13,.08,.25,.15,.33,.48,.17,.73Z"/>
      <path class="cls-3" d="M428.66,60.31l-2.57,3.84c-.16,.24-.49,.31-.73,.14-.06-.04-.12-.08-.18-.12-.24-.16-.31-.48-.16-.73l2.5-3.88c.16-.25,.49-.32,.73-.16,.04,.03,.09,.06,.13,.09,.04,.03,.09,.06,.13,.08,.24,.16,.31,.49,.15,.73Z"/>
      <path class="cls-3" d="M430.89,61.86l-2.71,3.75c-.17,.24-.5,.29-.74,.12-.06-.04-.12-.08-.18-.13-.24-.17-.29-.49-.13-.73l2.64-3.8c.17-.24,.5-.3,.74-.13,.04,.03,.08,.06,.13,.09,.04,.03,.08,.06,.13,.09,.24,.17,.29,.5,.12,.74Z"/>
      <path class="cls-3" d="M433.08,63.5l-2.84,3.66c-.18,.23-.51,.27-.74,.09-.06-.05-.12-.09-.18-.14-.23-.18-.28-.5-.1-.74l2.78-3.71c.17-.23,.51-.28,.74-.11,.04,.03,.08,.06,.13,.09,.04,.03,.08,.06,.12,.1,.23,.18,.27,.51,.1,.74Z"/>
      <path class="cls-3" d="M435.2,65.2l-2.97,3.56c-.19,.22-.52,.25-.74,.07-.06-.05-.11-.09-.17-.14-.22-.18-.26-.51-.08-.74l2.91-3.61c.18-.23,.52-.26,.75-.08,.04,.03,.08,.07,.12,.1,.04,.03,.08,.06,.12,.1,.23,.19,.26,.52,.07,.75Z"/>
      <path class="cls-3" d="M437.26,66.98l-3.1,3.46c-.19,.22-.53,.23-.74,.04-.06-.05-.11-.1-.17-.15-.22-.19-.24-.52-.05-.74l3.03-3.51c.19-.22,.53-.25,.75-.05,.04,.03,.08,.07,.12,.1,.04,.03,.08,.07,.12,.1,.22,.19,.24,.53,.05,.75Z"/>
      <path class="cls-3" d="M439.26,68.83l-3.22,3.35c-.2,.21-.53,.22-.75,.02-.05-.05-.1-.1-.16-.15-.21-.2-.23-.53-.03-.74l3.16-3.41c.2-.21,.53-.23,.75-.03,.04,.04,.08,.07,.11,.11,.04,.04,.07,.07,.11,.11,.21,.2,.22,.54,.02,.75Z"/>
      <path class="cls-3" d="M441.19,70.75l-3.33,3.24c-.21,.2-.54,.2-.74,0-.05-.05-.1-.11-.16-.16-.21-.21-.21-.54,0-.74l3.28-3.3c.21-.21,.54-.21,.75,0,.04,.04,.07,.07,.11,.11,.04,.04,.07,.07,.11,.11,.21,.21,.2,.54,0,.75Z"/>
      <path class="cls-3" d="M443.05,72.74l-3.44,3.12c-.21,.19-.55,.18-.74-.03-.05-.05-.1-.11-.15-.16-.2-.21-.19-.55,.02-.75l3.39-3.18c.21-.2,.55-.19,.75,.03,.03,.04,.07,.07,.1,.11,.04,.04,.07,.08,.11,.12,.2,.22,.18,.55-.04,.75Z"/>
      <path class="cls-3" d="M444.85,74.79l-3.55,3c-.22,.19-.55,.16-.74-.06-.05-.06-.1-.11-.14-.17-.19-.22-.17-.55,.05-.74l3.49-3.06c.22-.19,.55-.17,.75,.05,.07,.08,.13,.15,.2,.23l-.05,.75Z"/>
      <path class="cls-3" d="M446.57,76.9l-3.64,2.87c-.23,.18-.56,.14-.74-.09-.05-.06-.09-.11-.14-.17-.18-.23-.15-.56,.07-.74l3.6-2.93c.23-.19,.56-.15,.75,.08,.03,.04,.06,.08,.1,.12,.03,.04,.06,.08,.1,.12,.18,.23,.14,.56-.09,.74Z"/>
      <path class="cls-3" d="M448.22,79.07l-3.74,2.73c-.23,.17-.56,.12-.74-.11-.04-.06-.09-.12-.13-.18-.18-.23-.13-.56,.1-.74l3.69-2.8c.23-.18,.57-.13,.74,.1,.03,.04,.06,.08,.09,.13,.03,.04,.06,.08,.09,.13,.17,.24,.12,.57-.11,.74Z"/>
      <path class="cls-3" d="M449.79,81.3l-3.82,2.6c-.24,.16-.57,.1-.73-.14-.04-.06-.08-.12-.12-.18-.17-.24-.11-.57,.13-.74l3.78-2.67c.24-.17,.57-.11,.74,.13,.03,.04,.06,.09,.09,.13,.03,.04,.06,.08,.09,.13,.17,.24,.1,.57-.14,.74Z"/>
      <path class="cls-3" d="M451.28,83.58l-3.91,2.46c-.25,.15-.57,.08-.73-.16-.04-.06-.08-.12-.12-.19-.16-.24-.09-.57,.15-.73l3.86-2.53c.25-.16,.58-.09,.73,.16,.03,.04,.06,.09,.08,.13,.03,.04,.06,.09,.08,.13,.16,.25,.08,.57-.16,.73Z"/>
      <path class="cls-3" d="M452.69,85.91l-3.98,2.32c-.25,.15-.57,.06-.72-.19-.04-.06-.08-.13-.11-.19-.15-.25-.07-.57,.18-.72l3.94-2.39c.25-.15,.58-.07,.73,.18,.03,.04,.05,.09,.08,.13,.03,.04,.05,.09,.08,.13,.15,.25,.06,.58-.19,.73Z"/>
      <path class="cls-3" d="M454.02,88.28l-4.05,2.17c-.26,.14-.57,.04-.71-.21-.04-.06-.07-.13-.11-.19-.14-.25-.05-.58,.2-.72l4.01-2.24c.26-.14,.58-.05,.72,.21,.02,.04,.05,.09,.07,.13,.03,.05,.05,.09,.07,.14,.14,.26,.04,.58-.21,.72Z"/>
      <path class="cls-3" d="M455.26,90.71l-4.11,2.02c-.26,.13-.57,.02-.7-.24-.03-.07-.07-.13-.1-.2-.13-.26-.03-.58,.23-.71l4.08-2.09c.26-.13,.58-.03,.71,.23,.02,.05,.05,.09,.07,.14,.02,.05,.05,.09,.07,.14,.13,.26,.02,.58-.24,.71Z"/>
      <path class="cls-3" d="M456.42,93.17l-4.17,1.88c-.26,.12-.57,0-.7-.26-.03-.07-.06-.13-.09-.2-.12-.26-.01-.58,.25-.7l4.14-1.95,.71,.26c.04,.09,.09,.19,.13,.28,.12,.27,0,.58-.27,.7Z"/>
      <path class="cls-3" d="M457.5,95.67l-4.23,1.72c-.27,.11-.57-.02-.69-.29-.03-.07-.06-.14-.09-.2-.11-.27,0-.58,.28-.69l4.19-1.8c.27-.12,.58,.01,.69,.28,.02,.05,.04,.09,.06,.14,.02,.05,.04,.1,.06,.14,.11,.27-.02,.58-.29,.69Z"/>
      <path class="cls-3" d="M458.48,98.21l-4.27,1.57c-.27,.1-.57-.04-.68-.31-.03-.07-.05-.14-.08-.21-.11-.27,.03-.58,.3-.68l4.24-1.65c.27-.11,.58,.03,.69,.3,.02,.05,.04,.1,.05,.15,.02,.05,.04,.1,.06,.14,.1,.27-.04,.58-.31,.68Z"/>
      <path class="cls-3" d="M459.37,100.79l-4.31,1.42c-.28,.09-.57-.06-.66-.33-.02-.07-.05-.14-.07-.21-.1-.28,.05-.58,.32-.67l4.29-1.49c.28-.1,.58,.05,.67,.33,.02,.05,.03,.09,.05,.14,.02,.05,.03,.1,.05,.15,.09,.28-.06,.58-.34,.67Z"/>
      <path class="cls-3" d="M460.18,103.39l-4.35,1.26c-.28,.08-.57-.08-.65-.36-.02-.07-.04-.14-.06-.21-.09-.28,.07-.57,.35-.66l4.33-1.34,.66,.35c.03,.1,.06,.2,.09,.29,.08,.28-.08,.58-.36,.66Z"/>
      <path class="cls-3" d="M460.89,106.02l-4.39,1.11c-.28,.07-.57-.1-.64-.38-.02-.07-.04-.14-.06-.21-.08-.28,.09-.57,.37-.65l4.37-1.19c.28-.08,.57,.09,.65,.37,.01,.05,.03,.1,.04,.15,.01,.05,.03,.1,.04,.15,.07,.28-.1,.57-.38,.65Z"/>
      <path class="cls-3" d="M461.52,108.67l-4.42,.95c-.28,.06-.56-.12-.63-.4-.02-.07-.03-.14-.05-.22-.06-.28,.11-.57,.39-.63l4.4-1.03c.29-.07,.57,.11,.64,.4,.01,.05,.02,.1,.03,.15,.01,.05,.02,.1,.03,.15,.06,.29-.12,.57-.4,.63Z"/>
      <path class="cls-3" d="M462.05,111.34l-4.44,.8c-.29,.05-.56-.14-.61-.42-.01-.07-.03-.15-.04-.22-.06-.29,.13-.56,.41-.62l4.43-.88,.62,.42c.02,.1,.04,.2,.06,.3,.05,.29-.14,.57-.43,.62Z"/>
      <path class="cls-3" d="M462.48,114.03l-4.46,.64c-.29,.04-.55-.16-.6-.44-.01-.07-.02-.15-.03-.22-.05-.29,.15-.56,.44-.6l4.45-.72,.61,.44c.02,.1,.03,.2,.05,.3,.04,.29-.16,.56-.45,.6Z"/>
      <path class="cls-3" d="M462.82,116.73l-4.48,.49c-.29,.03-.55-.18-.58-.47,0-.07-.02-.15-.03-.22-.03-.29,.17-.55,.46-.59l4.47-.56c.29-.04,.56,.17,.59,.46,0,.05,.01,.1,.02,.15,0,.05,.01,.1,.02,.15,.03,.29-.18,.55-.47,.58Z"/>
      <path class="cls-3" d="M463.07,119.44l-4.49,.33c-.29,.02-.54-.2-.56-.49,0-.07-.01-.15-.02-.22-.02-.29,.19-.55,.48-.57l4.48-.41c.29-.03,.55,.19,.57,.48,0,.05,0,.1,.01,.15,0,.05,0,.1,.01,.15,.02,.29-.2,.55-.49,.57Z"/>
      <path class="cls-3" d="M463.22,122.17l-4.5,.17c-.29,.01-.53-.21-.55-.5,0-.08,0-.15-.01-.23-.02-.29,.21-.54,.5-.56l4.5-.25c.29-.02,.54,.21,.56,.5,0,.05,0,.1,0,.15,0,.05,0,.1,0,.16,.01,.29-.21,.54-.51,.55Z"/>
      <path class="cls-3" d="M463.28,124.89h-4.5c-.29,.02-.53-.22-.53-.51,0-.07,0-.15,0-.22,0-.29,.23-.53,.52-.54l4.5-.09c.29,0,.53,.23,.54,.52,0,.05,0,.1,0,.16,0,.05,0,.1,0,.15,0,.29-.23,.53-.53,.53Z"/>
      <path class="cls-3" d="M463.27,126.25c.29,0,.53,.25,.52,.54,0,.05,0,.1,0,.15,0,.05,0,.1,0,.15,0,.29-.25,.52-.54,.52l-4.5-.14c-.29,0-.52-.25-.51-.54,0-.08,0-.15,0-.23,0-.29,.24-.52,.53-.52l4.5,.06Z"/>
      <path class="cls-3" d="M463.18,128.97c.29,.01,.52,.26,.5,.56,0,.05,0,.1,0,.15,0,.05,0,.1,0,.15-.02,.29-.27,.51-.56,.5l-4.49-.3c-.29-.02-.51-.27-.49-.56,0-.07,0-.15,.01-.22,.02-.29,.26-.51,.55-.5l4.5,.22Z"/>
      <path class="cls-3" d="M463,131.69c.29,.02,.51,.28,.48,.57,0,.05,0,.1-.01,.15,0,.05,0,.1-.01,.15-.03,.29-.29,.51-.58,.48l-4.48-.46c-.29-.03-.5-.29-.47-.58,0-.07,.01-.15,.02-.22,.03-.29,.28-.5,.57-.48l4.49,.38Z"/>
      <path class="cls-3" d="M462.73,134.4c.29,.03,.5,.3,.46,.59,0,.05-.01,.1-.02,.15s-.01,.1-.02,.15c-.04,.29-.31,.49-.6,.45l-4.46-.61c-.29-.04-.49-.3-.45-.59,0-.07,.02-.15,.03-.22,.04-.29,.3-.49,.59-.46l4.47,.53Z"/>
      <path class="cls-3" d="M462.36,137.1c.29,.04,.49,.32,.44,.61,0,.05-.02,.1-.02,.15,0,.05-.02,.1-.03,.15-.05,.29-.32,.48-.61,.43l-4.44-.77c-.29-.05-.48-.32-.43-.61,.01-.07,.02-.15,.04-.22,.05-.29,.31-.48,.6-.44l4.45,.69Z"/>
      <path class="cls-3" d="M461.89,139.78c.29,.05,.48,.33,.42,.62-.01,.05-.02,.1-.03,.15,0,.05-.02,.1-.03,.15-.06,.29-.34,.47-.63,.41l-4.42-.92c-.29-.06-.47-.34-.41-.62,.01-.07,.03-.14,.04-.21,.06-.29,.33-.47,.62-.42l4.43,.84Z"/>
      <path class="cls-3" d="M461.34,142.45c.29,.06,.46,.35,.4,.63-.01,.05-.02,.1-.04,.15-.01,.05-.02,.1-.04,.15-.07,.29-.36,.46-.64,.39l-4.39-1.08c-.28-.07-.45-.36-.39-.64,.02-.07,.03-.14,.05-.22,.07-.28,.35-.46,.63-.39l4.4,1Z"/>
      <path class="cls-3" d="M460.69,145.09l.37,.65c-.03,.1-.05,.2-.08,.29-.08,.28-.37,.45-.65,.37l-4.35-1.23c-.28-.08-.44-.37-.36-.65,.02-.07,.04-.14,.06-.21,.08-.28,.36-.45,.64-.37l4.37,1.16Z"/>
      <path class="cls-3" d="M459.94,147.71c.28,.08,.44,.38,.35,.66-.02,.05-.03,.1-.05,.15-.01,.05-.03,.1-.04,.15-.09,.28-.39,.44-.67,.35l-4.31-1.38c-.28-.09-.43-.38-.34-.66,.02-.07,.04-.14,.07-.21,.09-.28,.38-.43,.66-.35l4.33,1.31Z"/>
      <path class="cls-3" d="M459.11,150.31c.28,.09,.43,.4,.33,.67-.02,.05-.03,.1-.05,.15-.02,.05-.03,.1-.05,.15-.1,.28-.4,.42-.68,.32l-4.26-1.53c-.27-.1-.42-.4-.32-.67,.03-.07,.05-.14,.07-.21,.1-.27,.39-.42,.67-.33l4.29,1.46Z"/>
      <path class="cls-3" d="M458.19,152.87c.27,.1,.41,.41,.3,.69-.02,.05-.04,.09-.06,.14-.02,.05-.04,.1-.05,.14-.11,.27-.42,.41-.69,.3l-4.21-1.68c-.27-.11-.4-.41-.29-.69,.03-.07,.05-.14,.08-.21,.11-.27,.41-.41,.68-.3l4.24,1.61Z"/>
      <path class="cls-3" d="M457.18,155.4c.27,.11,.4,.42,.28,.69-.02,.05-.04,.1-.06,.14-.02,.05-.04,.09-.06,.14-.12,.27-.43,.39-.7,.27l-4.16-1.83c-.27-.12-.39-.43-.27-.69,.03-.07,.06-.14,.09-.21,.11-.27,.42-.39,.69-.28l4.19,1.76Z"/>
      <path class="cls-3" d="M456.08,157.89c.27,.12,.38,.44,.26,.7-.02,.05-.04,.09-.07,.14-.02,.05-.04,.09-.07,.14-.13,.26-.44,.37-.71,.25l-4.09-1.98c-.26-.13-.37-.44-.24-.7,.03-.07,.06-.13,.09-.2,.12-.26,.44-.38,.7-.26l4.13,1.91Z"/>
      <path class="cls-3" d="M454.89,160.34l.23,.72c-.05,.09-.09,.18-.14,.27-.13,.26-.46,.36-.71,.22l-4.03-2.13c-.26-.14-.36-.45-.22-.71,.03-.07,.07-.13,.1-.2,.13-.26,.45-.36,.71-.23l4.07,2.05Z"/>
      <path class="cls-3" d="M453.62,162.75c.26,.14,.35,.46,.21,.72-.03,.05-.05,.09-.08,.13-.02,.04-.05,.09-.07,.13-.14,.26-.47,.35-.72,.2l-3.96-2.27c-.25-.14-.34-.47-.19-.72,.04-.06,.07-.13,.11-.19,.14-.25,.46-.35,.72-.21l3.99,2.2Z"/>
      <path class="cls-3" d="M452.27,165.12c.25,.15,.33,.48,.18,.73-.03,.04-.05,.09-.08,.13s-.05,.09-.08,.13c-.15,.25-.48,.33-.73,.17l-3.88-2.41c-.25-.15-.32-.48-.17-.73,.04-.06,.08-.12,.11-.19,.15-.25,.47-.33,.72-.18l3.92,2.34Z"/>
      <path class="cls-3" d="M450.83,167.43c.25,.16,.32,.49,.16,.73-.03,.04-.06,.09-.09,.13-.03,.04-.06,.09-.08,.13-.16,.24-.49,.31-.73,.15l-3.79-2.54c-.24-.16-.31-.49-.15-.73,.04-.06,.08-.12,.12-.18,.16-.24,.48-.31,.73-.16l3.84,2.47Z"/>
      <path class="cls-3" d="M449.32,169.7l.13,.74c-.06,.08-.12,.17-.18,.25-.17,.24-.5,.29-.74,.12l-3.71-2.67c-.24-.17-.29-.5-.12-.73,.04-.06,.09-.12,.13-.18,.17-.24,.49-.3,.73-.13l3.75,2.61Z"/>
      <path class="cls-3" d="M447.72,171.9c.23,.18,.28,.51,.11,.74-.03,.04-.06,.08-.09,.12-.03,.04-.06,.08-.09,.12-.18,.23-.51,.28-.74,.1l-3.61-2.8c-.23-.18-.27-.51-.09-.74,.04-.06,.09-.12,.13-.18,.18-.23,.5-.28,.74-.1l3.66,2.74Z"/>
      <path class="cls-3" d="M446.05,174.06c.23,.18,.26,.52,.08,.75-.03,.04-.07,.08-.1,.12s-.07,.08-.1,.12c-.19,.23-.52,.26-.75,.07l-3.51-2.93c-.22-.19-.25-.52-.07-.74,.05-.06,.09-.11,.14-.17,.18-.23,.51-.26,.74-.08l3.56,2.86Z"/>
      <path class="cls-3" d="M444.36,176.89c-.07,.08-.13,.15-.2,.23l-.75,.05-3.41-3.05c-.22-.19-.23-.53-.04-.74,.05-.06,.1-.11,.15-.17,.19-.22,.52-.24,.74-.05l3.46,2.99c.22,.19,.25,.53,.05,.75Z"/>
      <path class="cls-3" d="M442.49,178.18l.02,.75c-.07,.07-.14,.15-.21,.22-.2,.21-.54,.22-.75,.02l-3.3-3.16c-.21-.2-.22-.53-.02-.74,.05-.05,.1-.11,.15-.16,.2-.21,.53-.22,.74-.03l3.36,3.11Z"/>
      <path class="cls-3" d="M440.61,180.14v.75c-.08,.07-.15,.14-.22,.22-.21,.2-.54,.2-.75,0l-3.18-3.28c-.2-.21-.2-.54,0-.74,.05-.05,.11-.1,.16-.16,.21-.2,.54-.21,.74,0l3.24,3.22Z"/>
      <path class="cls-3" d="M438.65,182.04c.2,.21,.19,.55-.03,.75-.04,.04-.08,.07-.11,.11-.04,.03-.07,.07-.11,.1-.22,.2-.55,.18-.75-.03l-3.07-3.38c-.2-.22-.18-.55,.04-.74,.05-.05,.11-.1,.16-.15,.21-.2,.55-.19,.74,.02l3.12,3.33Z"/>
      <path class="cls-3" d="M436.63,183.87c.19,.22,.17,.56-.05,.75-.04,.03-.08,.07-.12,.1-.04,.03-.08,.07-.11,.1-.22,.19-.56,.17-.75-.06l-2.94-3.48c-.19-.22-.16-.55,.06-.74,.06-.05,.11-.1,.17-.14,.22-.19,.55-.17,.74,.05l3,3.43Z"/>
      <path class="cls-3" d="M434.48,186.37c-.08,.07-.16,.13-.24,.19l-.74-.09-2.82-3.58c-.18-.23-.14-.56,.09-.74,.06-.05,.12-.09,.18-.14,.23-.18,.56-.15,.74,.08l2.88,3.53c.18,.23,.15,.56-.08,.74Z"/>
      <path class="cls-3" d="M432.41,187.31c.18,.23,.13,.57-.1,.74-.04,.03-.08,.06-.12,.09-.04,.03-.08,.06-.12,.09-.24,.17-.57,.12-.74-.11l-2.69-3.67c-.17-.23-.12-.56,.11-.74,.06-.04,.12-.09,.18-.13,.23-.18,.56-.13,.74,.1l2.75,3.63Z"/>
      <path class="cls-3" d="M430.09,189.66c-.08,.06-.17,.12-.25,.18l-.74-.13-2.56-3.76c-.16-.24-.1-.57,.14-.73,.06-.04,.12-.09,.18-.13,.24-.17,.57-.11,.73,.13l2.62,3.72c.17,.24,.11,.57-.13,.74Z"/>
      <path class="cls-3" d="M427.81,191.19c-.09,.06-.17,.11-.26,.17l-.73-.16-2.42-3.84c-.15-.25-.08-.57,.16-.73,.06-.04,.13-.08,.19-.12,.24-.16,.57-.09,.73,.15l2.48,3.8c.16,.24,.09,.57-.15,.73Z"/>
      <path class="cls-3" d="M425.48,192.63c-.09,.05-.18,.11-.27,.16l-.72-.19-2.28-3.92c-.15-.25-.06-.57,.19-.72,.06-.04,.13-.08,.19-.12,.25-.15,.57-.07,.72,.18l2.35,3.88c.15,.25,.07,.58-.18,.73Z"/>
      <path class="cls-3" d="M423.1,193.99c-.09,.05-.18,.1-.27,.15l-.72-.21-2.14-3.99c-.14-.26-.04-.57,.21-.71,.06-.04,.13-.07,.19-.11,.26-.14,.58-.05,.72,.2l2.21,3.95c.14,.26,.05,.58-.21,.72Z"/>
      <path class="cls-3" d="M420.9,194.56c.13,.26,.03,.58-.23,.71-.05,.02-.09,.05-.14,.07-.05,.02-.09,.05-.14,.07-.26,.13-.58,.02-.71-.24l-2-4.06c-.13-.26-.02-.57,.24-.7,.07-.03,.13-.07,.2-.1,.26-.13,.58-.03,.71,.23l2.07,4.02Z"/>
      <path class="cls-3" d="M418.2,196.47c-.09,.04-.18,.08-.28,.13l-.7-.26-1.85-4.12c-.12-.27,0-.58,.26-.7,.07-.03,.13-.06,.2-.09,.26-.12,.58-.01,.7,.25l1.92,4.09c.12,.27,0,.58-.26,.7Z"/>
      <path class="cls-3" d="M415.69,197.57c-.09,.04-.19,.08-.28,.12l-.7-.29-1.71-4.18c-.11-.27,.02-.57,.29-.69,.07-.03,.14-.06,.21-.09,.27-.11,.58,0,.69,.28l1.78,4.15c.12,.27,0,.58-.28,.69Z"/>
      <path class="cls-3" d="M413.45,197.91c.11,.27-.03,.58-.3,.68-.05,.02-.1,.04-.15,.06-.05,.02-.1,.04-.15,.06-.27,.1-.58-.04-.68-.31l-1.56-4.23c-.1-.27,.04-.57,.31-.68,.07-.03,.14-.05,.21-.08,.27-.1,.58,.03,.68,.3l1.63,4.21Z"/>
      <path class="cls-3" d="M410.89,198.85c.1,.28-.05,.58-.33,.67l-.15,.05s-.1,.03-.15,.05c-.28,.09-.58-.06-.67-.34l-1.41-4.28c-.09-.28,.06-.57,.33-.67,.07-.02,.14-.05,.21-.07,.28-.09,.57,.05,.67,.33l1.48,4.26Z"/>
      <path class="cls-3" d="M407.96,200.36c-.1,.03-.2,.06-.29,.09l-.66-.36-1.26-4.33c-.08-.28,.08-.57,.36-.65,.07-.02,.14-.04,.21-.06,.28-.08,.57,.07,.66,.35l1.33,4.3c.09,.28-.07,.58-.35,.66Z"/>
      <path class="cls-3" d="M405.69,200.46c.08,.28-.09,.57-.37,.65-.05,.01-.1,.03-.15,.04-.05,.01-.1,.03-.15,.04-.28,.07-.57-.1-.64-.38l-1.11-4.37c-.07-.28,.1-.57,.38-.64,.07-.02,.15-.04,.22-.06,.28-.07,.57,.09,.64,.37l1.18,4.35Z"/>
      <path class="cls-3" d="M477.2,125.15c0,30.93-15.6,59.83-41.4,76.81-.41,.27-.97,.15-1.24-.26l-1.22-1.9-.48-.75c-.27-.41-.15-.96,.26-1.23,24.4-16.07,39.15-43.42,39.15-72.67,0-43.99-33.36-80.81-75.96-86.32-3.63-.47-7.32-.71-11.07-.71-24.07,0-47.07,9.98-63.51,27.52-.33,.36-.89,.38-1.25,.05h0c-.36-.33-.39-.9-.05-1.26,16.77-17.9,40.25-28.09,64.81-28.09,3.77,0,7.49,.24,11.15,.71,.08,.01,.16-.05,.17-.13l.27-2.09c.06-.49,.51-.84,1-.77,45.24,6.25,79.38,45.34,79.38,91.09Z"/>
      <path class="cls-3" d="M327.45,92.07s-.03,.06-.05,.09c-.02,.04-.04,.09-.07,.13,.03-.08,.07-.16,.12-.22Z"/>
    </g>
    <path class="cls-3" d="M452.68,124.94c0,12.36-3.43,24.47-9.92,35.03-6.48,10.56-15.74,19.09-26.76,24.68-.1,.05-.21,.08-.32,.1,0,0,0,0-.01,0-.02,0-.04,.01-.07,.01-.03,0-.06,.01-.09,.01-.01,0-.02,0-.03,0h-.02c-.62,0-1.12-.52-1.12-1.14s.57-.94,1.64-1.65c.02-.02,.04-.03,.07-.04,10.14-5.39,18.66-13.39,24.69-23.22,6.26-10.18,9.56-21.86,9.56-33.78,0-17.12-6.75-33.3-19-45.56-12.25-12.25-28.43-19-45.56-19-22.91,0-44.14,12.19-55.69,31.9-.32,.54-1.05,1.57-1.67,1.57-.59,0-1.08-.45-1.13-1.02,0-.03,0-.06,0-.1v-.02s0-.1,.01-.15c0-.05,.02-.1,.03-.15,.01-.04,.03-.09,.05-.14,.02-.05,.04-.09,.07-.13,.02-.03,.03-.06,.05-.09,11.85-21.01,34.18-34.05,58.3-34.05,17.76,0,34.54,6.99,47.24,19.69,12.7,12.7,19.7,29.48,19.7,47.24Z"/>
  </g>
  <text class="cls-4" transform="translate(525.69 185.49)"><tspan x="0" y="0">NEWSLETTER</tspan></text>
</svg>